<svg xmlns="http://www.w3.org/2000/svg" viewBox="0 0 1479.52 674.04"><defs><style>.cls-1,.cls-3{fill:#ffd400;}.cls-1,.cls-15{opacity:0.1;}.cls-2{fill:#ffe05c;}.cls-4{fill:#fff;}.cls-5{fill:#595959;}.cls-6{fill:#686868;}.cls-7{fill:#01eec4;}.cls-8{fill:#efefef;}.cls-9{fill:#008585;}.cls-10{fill:#9b9b9b;}.cls-11{fill:#00cca5;}.cls-12{fill:#cecece;}.cls-13{fill:#00a9a9;}.cls-14{fill:#d3d3d3;}.cls-15,.cls-16{fill:#f6f6f6;}</style></defs><title>Asset 6</title><g id="Layer_2" data-name="Layer 2"><g id="Layer_1-2" data-name="Layer 1"><path class="cls-1" d="M455.47,324a29.05,29.05,0,0,1-16.41-4.78,25,25,0,0,1-10.14-13.59,209,209,0,0,0-19.12-37.41c-4.49-7-10.83-15.57-18.87-25.61-11.41-14.12-19.17-25.38-23.68-34.39l-.14-.27-.17-.42-.05-.13c-6.14-14.63-9.26-33.09-9.27-54.91A146,146,0,0,1,504.25,5.71,144.81,144.81,0,0,1,578,25.27a146,146,0,0,1,73,127.06c0,22-3.12,40.53-9.31,55.17l-.12.29-.14.29c-4.51,9-12.25,20.28-23.68,34.44-8,10-14.32,18.62-18.77,25.55a209.1,209.1,0,0,0-19.12,37.48,25,25,0,0,1-10.13,13.61A29.14,29.14,0,0,1,553.36,324l-97.88.05Z"/><path class="cls-2" d="M503.85,16.71A136,136,0,0,0,367.5,153.77q.08,31,8.62,51.1L554.29,26A136,136,0,0,0,503.85,16.71Z"/><path class="cls-3" d="M622.48,84.36A136.64,136.64,0,0,0,554.29,26L376.12,204.87l.06.14q6.24,12.41,22.61,32.56,12.46,15.51,19.48,26.36a218.38,218.38,0,0,1,20.3,39.56,14.86,14.86,0,0,0,6.24,8.53,19.09,19.09,0,0,0,10.88,3.08l97.87-.25a19.17,19.17,0,0,0,10.87-3.14,14.87,14.87,0,0,0,6.19-8.56,218.19,218.19,0,0,1,20.09-39.66A324.49,324.49,0,0,1,610.06,237q16.26-20.25,22.44-32.69,8.49-20.21,8.41-51.28A134.55,134.55,0,0,0,622.48,84.36Z"/><path class="cls-4" d="M461.2,107.27Q479.41,89,505,88.91A12.43,12.43,0,1,0,505,64.05a87,87,0,0,0-86.76,87.22,12.43,12.43,0,1,0,24.85-.06Q443,125.58,461.2,107.27Z"/><rect class="cls-5" x="459.85" y="357.88" width="96.31" height="52" rx="26" transform="translate(-3.35 4.47) rotate(-0.5)"/><rect class="cls-6" x="445.24" y="329.99" width="125" height="47" rx="11.89" transform="translate(-3.08 4.47) rotate(-0.5)"/><path class="cls-7" d="M167.37,408a69.86,69.86,0,0,1,35.71,9.6,70.84,70.84,0,0,1,26.12,26.12,69.85,69.85,0,0,1,9.59,35.71v22.39a25.47,25.47,0,0,1-25.58,25.58H25.59a24.71,24.71,0,0,1-18.13-7.46A24.7,24.7,0,0,1,0,501.77V479.38a70,70,0,0,1,9.59-35.71,70.91,70.91,0,0,1,26.12-26.12A69.89,69.89,0,0,1,71.42,408h9.07a93,93,0,0,0,77.82,0Z"/><path class="cls-8" d="M119.4,390.9A67.64,67.64,0,0,1,85,381.84a66.35,66.35,0,0,1-24.79-24.79,69.76,69.76,0,0,1,0-68.76A66.33,66.33,0,0,1,85,263.51a69.69,69.69,0,0,1,68.76,0,66.37,66.37,0,0,1,24.78,24.78,69.76,69.76,0,0,1,0,68.76,66.4,66.4,0,0,1-24.78,24.79A67.7,67.7,0,0,1,119.4,390.9Z"/><path class="cls-9" d="M1412.52,328a65.6,65.6,0,0,1,33.5,9,66.5,66.5,0,0,1,24.5,24.5,65.57,65.57,0,0,1,9,33.5v21a23.9,23.9,0,0,1-24,24h-176a23.9,23.9,0,0,1-24-24V395a65.57,65.57,0,0,1,9-33.5A66.42,66.42,0,0,1,1289,337a65.57,65.57,0,0,1,33.5-9h8.5a87.27,87.27,0,0,0,73,0Z"/><path class="cls-10" d="M1367.52,312a63.41,63.41,0,0,1-32.25-8.5A62.21,62.21,0,0,1,1312,280.25a65.43,65.43,0,0,1,0-64.5,62.21,62.21,0,0,1,23.25-23.25,65.43,65.43,0,0,1,64.5,0A62.36,62.36,0,0,1,1423,215.75a65.43,65.43,0,0,1,0,64.5,62.36,62.36,0,0,1-23.25,23.25A63.46,63.46,0,0,1,1367.52,312Z"/><path class="cls-11" d="M1014.4,121.21a55.06,55.06,0,0,1,28.19,7.58,55.91,55.91,0,0,1,20.63,20.62,55.19,55.19,0,0,1,7.57,28.2v17.67a20.11,20.11,0,0,1-20.2,20.2H902.44a20.13,20.13,0,0,1-20.2-20.2V177.61a55.2,55.2,0,0,1,7.58-28.2,55.88,55.88,0,0,1,20.62-20.62,55.12,55.12,0,0,1,28.2-7.58h7.15a73.5,73.5,0,0,0,61.45,0Z"/><path class="cls-12" d="M976.52,107.74a53.43,53.43,0,0,1-27.15-7.15A52.44,52.44,0,0,1,929.8,81a53.43,53.43,0,0,1-7.15-27.15,53.37,53.37,0,0,1,7.15-27.14A52.39,52.39,0,0,1,949.37,7.15a55.1,55.1,0,0,1,54.29,0,52.39,52.39,0,0,1,19.57,19.58,53.38,53.38,0,0,1,7.16,27.14A53.44,53.44,0,0,1,1023.23,81a52.44,52.44,0,0,1-19.57,19.57A53.37,53.37,0,0,1,976.52,107.74Z"/><path class="cls-13" d="M995.15,515.21A93,93,0,0,1,1042.66,528a94.21,94.21,0,0,1,34.74,34.74,93,93,0,0,1,12.77,47.51V640a33.9,33.9,0,0,1-34,34H806.55a33.9,33.9,0,0,1-34-34V610.22a93,93,0,0,1,12.76-47.51A94.24,94.24,0,0,1,820,528a93,93,0,0,1,47.5-12.76h12.06a123.8,123.8,0,0,0,103.52,0Z"/><path class="cls-14" d="M931.34,492.52a90,90,0,0,1-45.74-12.06,88.27,88.27,0,0,1-33-33,92.82,92.82,0,0,1,0-91.47,88.42,88.42,0,0,1,33-33,92.82,92.82,0,0,1,91.47,0,88.27,88.27,0,0,1,33,33,92.75,92.75,0,0,1,0,91.47,88.13,88.13,0,0,1-33,33A89.94,89.94,0,0,1,931.34,492.52Z"/><path class="cls-15" d="M238.11,287.52A17,17,0,0,1,231.29,255L260,242.41a16.81,16.81,0,0,1,6.81-1.43,17,17,0,0,1,6.81,32.58L244.92,286.1A17,17,0,0,1,238.11,287.52Z"/><path class="cls-15" d="M187.55,299.49a71.66,71.66,0,0,0-5.09-11.15L177,278.69l16.07-7a17,17,0,1,1,13.63,31.15l-15.57,6.82Z"/><path class="cls-15" d="M782.94,338a17,17,0,0,1-8.66-2.38l-24.41-14.47a17,17,0,1,1,17.34-29.25l24.41,14.47A17,17,0,0,1,782.94,338Z"/><path class="cls-15" d="M832.93,370.28a16.77,16.77,0,0,1-1.71-.88l-24.4-14.47a17,17,0,0,1-6-23.3,17,17,0,0,1,23.3-5.94l33,19.59-5.46,9.05-.72,1.2a94.48,94.48,0,0,0-4.81,9.6l-4,9.33Z"/><path class="cls-15" d="M744.57,117.34A17.07,17.07,0,0,1,728,103.87,17,17,0,0,1,741,83.71L772.48,77a17.58,17.58,0,0,1,3.54-.37,17,17,0,0,1,3.52,33.63L748.11,117A17.66,17.66,0,0,1,744.57,117.34Z"/><path class="cls-15" d="M817.92,101.77a17,17,0,0,1-3.53-33.64l31.44-6.67a16.82,16.82,0,0,1,3.54-.37,17,17,0,0,1,3.52,33.63l-31.43,6.67A17,17,0,0,1,817.92,101.77Z"/><path class="cls-15" d="M891.27,86.19a17,17,0,0,1-3.53-33.63l32.47-6.89.5,11.81a58.39,58.39,0,0,0,1.71,11.84L925,79.41,894.8,85.82A16.8,16.8,0,0,1,891.27,86.19Z"/><path class="cls-15" d="M843.43,201.89c-.54,0-1.07,0-1.6-.1l-28.69-3.2a17,17,0,1,1,3.77-33.79L845.6,168a17,17,0,0,1-1.87,33.89Z"/><path class="cls-15" d="M1281.77,250.89a17,17,0,0,1,1.87-33.9,17.47,17.47,0,0,1,1.91.11l21.48,2.4-3.1,11.29a66.46,66.46,0,0,0-2.14,12l-.88,10.22Z"/><path class="cls-15" d="M1178.16,239.25c-.53,0-1.07,0-1.59-.1l-28.69-3.2a17,17,0,0,1,1.87-33.9,17.28,17.28,0,0,1,1.9.1l28.69,3.21a17,17,0,0,1-1.88,33.89Z"/><path class="cls-15" d="M1111.22,231.78c-.54,0-1.07-.05-1.6-.1l-28.69-3.21a17,17,0,0,1-10-4.76l-6.36-6.25,5.48-7a22.14,22.14,0,0,0,4-8.23l2.14-8.47,37.18,4.15a17,17,0,0,1-1.88,33.9Z"/><path class="cls-15" d="M305,258.27a17,17,0,0,1-6.82-32.58l28.66-12.53a16.81,16.81,0,0,1,6.81-1.43,17,17,0,0,1,6.82,32.58l-28.66,12.53A16.84,16.84,0,0,1,305,258.27Z"/><path class="cls-15" d="M726,304.24a17,17,0,0,1-8.66-2.38l-24.41-14.47a17,17,0,1,1,17.34-29.25l24.41,14.47A17,17,0,0,1,726,304.24Z"/><path class="cls-15" d="M669,270.47a17,17,0,0,1-8.66-2.38L636,253.61a17,17,0,0,1-6-23.29,17,17,0,0,1,23.29-5.95l24.41,14.47A17,17,0,0,1,669,270.47Z"/><path class="cls-15" d="M671.22,132.91a17,17,0,0,1-3.52-33.63l31.43-6.67a17,17,0,0,1,7.06,33.26l-31.43,6.67A17,17,0,0,1,671.22,132.91Z"/><path class="cls-15" d="M709.54,187c-.51,0-1,0-1.58-.1l-28.71-3.21a17,17,0,0,1,1.86-33.9,17.51,17.51,0,0,1,1.92.11l28.68,3.2a17,17,0,0,1-1.88,33.9Z"/><path class="cls-15" d="M1245.11,246.72c-.53,0-1.06,0-1.58-.1l-28.71-3.2a17,17,0,0,1,1.87-33.9,17.65,17.65,0,0,1,1.92.11l28.68,3.2a17,17,0,0,1-1.88,33.89Z"/><path class="cls-15" d="M776.48,194.42c-.52,0-1.05,0-1.57-.1l-28.71-3.21A17,17,0,0,1,750,157.32l28.7,3.21a17,17,0,0,1-1.88,33.89Z"/><path class="cls-15" d="M977.32,216.84c-.53,0-1.07-.05-1.6-.11L947,213.53a17,17,0,0,1,1.86-33.9,17.33,17.33,0,0,1,1.91.11l28.69,3.2a17,17,0,0,1-1.88,33.9Z"/><path class="cls-15" d="M910.38,209.36c-.54,0-1.08,0-1.61-.1l-28.68-3.2a17,17,0,0,1,1.87-33.9,17.47,17.47,0,0,1,1.91.11l28.68,3.2a17,17,0,0,1-1.88,33.9Z"/><path class="cls-15" d="M1044.27,224.31c-.54,0-1.07-.05-1.6-.11L1014,221a17,17,0,0,1,1.86-33.9,17.84,17.84,0,0,1,1.93.11l28.67,3.2a17,17,0,0,1-1.87,33.9Z"/><path class="cls-16" d="M264,251.57,235.3,264.11a7,7,0,1,0,5.61,12.82l28.66-12.53A7,7,0,0,0,264,251.57Z"/><path class="cls-16" d="M202.7,293.65a7,7,0,1,0-5.61-12.83l-5.92,2.6A81.07,81.07,0,0,1,197,296.16Z"/><path class="cls-16" d="M782.94,328a7,7,0,0,0,3.58-13l-24.41-14.48A7,7,0,0,0,755,312.56L779.38,327A7,7,0,0,0,782.94,328Z"/><path class="cls-16" d="M843.44,348.74l-24.38-14.45a7,7,0,0,0-7.14,12l24.41,14.47a6.76,6.76,0,0,0,.71.36,106.56,106.56,0,0,1,5.33-10.63C842.72,349.93,843.08,349.34,843.44,348.74Z"/><path class="cls-16" d="M746,107.18l31.43-6.67a7,7,0,1,0-2.9-13.69l-31.44,6.67a7,7,0,0,0,1.45,13.85A6.66,6.66,0,0,0,746,107.18Z"/><path class="cls-16" d="M817.92,91.77a7.33,7.33,0,0,0,1.46-.16l31.43-6.67a7,7,0,1,0-2.9-13.7l-31.44,6.68a7,7,0,0,0,1.45,13.85Z"/><path class="cls-16" d="M889.82,62.34a7,7,0,0,0,1.45,13.85,7.31,7.31,0,0,0,1.46-.15l20-4.25a67.84,67.84,0,0,1-2-13.88Z"/><path class="cls-16" d="M814.25,188.65l28.69,3.2c.23,0,.45,0,.66,0a7,7,0,0,0,.9-13.95l-28.7-3.21a7,7,0,0,0-1.55,13.92Z"/><path class="cls-16" d="M1284.43,227a7,7,0,1,0-1.55,13.91l8.95,1a76.48,76.48,0,0,1,2.45-13.81Z"/><path class="cls-16" d="M1179.23,215.3l-28.69-3.21A7,7,0,1,0,1149,226l28.69,3.2c.22,0,.44,0,.66,0a7,7,0,0,0,.89-13.95Z"/><path class="cls-16" d="M330.82,222.32l-28.66,12.54a7,7,0,1,0,5.61,12.82l28.66-12.53a7,7,0,0,0-5.61-12.83Z"/><path class="cls-16" d="M729.57,281.21l-24.41-14.47A7,7,0,0,0,698,278.79l24.41,14.47a7,7,0,0,0,7.14-12.05Z"/><path class="cls-16" d="M672.62,247.44,648.21,233a7,7,0,0,0-7.14,12l24.41,14.48a7,7,0,0,0,7.14-12.05Z"/><path class="cls-16" d="M671.22,122.91a7.31,7.31,0,0,0,1.46-.15l31.44-6.68a7,7,0,0,0-2.91-13.69l-31.44,6.67a7,7,0,0,0,1.45,13.85Z"/><path class="cls-16" d="M709.71,177a7,7,0,0,0,.89-14l-28.69-3.2a7,7,0,0,0-1.55,13.91l28.69,3.21C709.27,176.93,709.49,177,709.71,177Z"/><path class="cls-16" d="M1245.29,236.72a7,7,0,0,0,.89-13.95l-28.7-3.2a7,7,0,1,0-1.55,13.91l28.69,3.2A5.12,5.12,0,0,0,1245.29,236.72Z"/><path class="cls-16" d="M776.66,184.42a7,7,0,0,0,.89-14l-28.69-3.2a7,7,0,1,0-1.56,13.92l28.7,3.2C776.22,184.4,776.44,184.42,776.66,184.42Z"/><path class="cls-16" d="M978.39,192.88l-28.69-3.2a7,7,0,1,0-1.56,13.91l28.7,3.2c.22,0,.44,0,.66.05a7,7,0,0,0,.89-14Z"/><path class="cls-16" d="M911.44,185.41l-28.69-3.2a7,7,0,0,0-1.55,13.91l28.69,3.2a4.87,4.87,0,0,0,.66,0,7,7,0,0,0,.89-14Z"/><path class="cls-16" d="M1112.28,207.82l-28.51-3.18-.18,0a7,7,0,0,0-1.55,13.91l28.69,3.21c.22,0,.44,0,.66,0a7,7,0,0,0,.89-14Z"/><path class="cls-16" d="M1045.34,200.35l-28.7-3.2a7,7,0,1,0-1.55,13.91l28.69,3.21.66,0a7,7,0,0,0,.9-14Z"/></g></g></svg>
