<svg xmlns="http://www.w3.org/2000/svg" viewBox="0 0 1293.96 579.02"><defs><style>.cls-1{fill:#9b9b9b;}.cls-2{fill:#fff;}.cls-3{fill:#7a7a7a;}.cls-4{fill:#353535;}.cls-5{fill:#00cca5;}.cls-6{fill:#00a9a9;}.cls-7{fill:#008585;}.cls-8{opacity:0.8;}.cls-9{fill:#00e0c1;}.cls-10{fill:#00eec4;}.cls-11{fill:#00d1bd;}.cls-12{opacity:0.7;}.cls-13{opacity:0.6;}</style></defs><title>Asset 5</title><g id="Layer_2" data-name="Layer 2"><g id="Layer_1-2" data-name="Layer 1"><path class="cls-1" d="M172.58,469.8q-27.39,0-46.88-19.5t-19.5-46.88v-292q0-27.39,19.5-46.88T172.58,45H623.92q27.39,0,46.88,19.5t19.5,46.88v292q0,27.39-19.5,46.88t-46.88,19.5Z"/><path class="cls-2" d="M159.3,111.38v292a13.46,13.46,0,0,0,13.28,13.28H623.92a13.46,13.46,0,0,0,13.28-13.28v-292A13.46,13.46,0,0,0,623.92,98.1H172.58a13.46,13.46,0,0,0-13.28,13.28Z"/><path class="cls-3" d="M730.13,496.35H796.5v39.82q0,16.61-19.5,28.21T730.13,576H66.38Q39,576,19.5,564.38T0,536.17V496.35H730.13Z"/><path class="cls-4" d="M431.44,536.17q6.63,0,6.64-6.63t-6.64-6.64H365.06q-6.63,0-6.63,6.64t6.63,6.63Z"/><rect class="cls-5" x="194.96" y="125" width="141" height="154" rx="16.91"/><rect class="cls-6" x="189.96" y="304" width="241" height="91.93" rx="16.91"/><rect class="cls-7" x="371.96" y="128" width="236" height="147" rx="16.91"/><g class="cls-8"><path class="cls-9" d="M1282.68,276.33a8.29,8.29,0,0,0-.78-1.78,9,9,0,0,0-1.16-1.58,11,11,0,0,0-3.09-2.43l-47.83-22.88a8.63,8.63,0,0,0-3.68-.78h-.21a16.1,16.1,0,0,0-3.92.31l-47.8,23a8.42,8.42,0,0,0-4.71,5.8l-1,4.29,57.52,31.3.1-.05,57.77-30Z"/><path class="cls-10" d="M1226,311.62l-57.52-31.3-6.85,30.08-3.92,17.19a9.48,9.48,0,0,0-.15,2v.08a9.75,9.75,0,0,0,.21,1.7c0,.15.07.29.1.44a11.82,11.82,0,0,0,.41,1.23,10.52,10.52,0,0,0,1.14,2.08l6.3,7.79,13.56,16.74L1192.55,376a11.4,11.4,0,0,0,6.68,3.23c.18,0,.35.05.53.06h26.38V311.67Z"/><path class="cls-11" d="M1293.88,327.52l-10.64-45.76-57.46,29.82V379h26.14a11,11,0,0,0,2.56-.28l.49-.13a7.72,7.72,0,0,0,4.11-2.86l17.49-21.63,8.28-10.24L1292,335A10.71,10.71,0,0,0,1293.88,327.52Z"/></g><g class="cls-12"><path class="cls-9" d="M1166.5,421.91a14.38,14.38,0,0,0-1.19-2.73,15.31,15.31,0,0,0-1.77-2.4,16.79,16.79,0,0,0-4.72-3.7l-73-34.91a13.35,13.35,0,0,0-5.63-1.2h-.32a25,25,0,0,0-6,.48L1001,412.6a12.86,12.86,0,0,0-7.17,8.85L992.34,428l87.75,47.74.14-.07,88.13-45.74Z"/><path class="cls-10" d="M1080.09,475.74,992.34,428l-10.46,45.89-6,26.22a14.78,14.78,0,0,0-.23,3v.11a14.22,14.22,0,0,0,.32,2.6c0,.23.1.45.16.67a15.81,15.81,0,0,0,.63,1.87,15.38,15.38,0,0,0,1.73,3.19l9.61,11.87L1008.8,549,1029,574a17.52,17.52,0,0,0,10.21,4.93c.27,0,.53.07.8.09h40.24V475.82Z"/><path class="cls-11" d="M1183.58,500l-16.23-69.81-87.67,45.49V578.49h39.88a17.11,17.11,0,0,0,3.91-.44l.75-.2a11.8,11.8,0,0,0,6.28-4.36l26.67-33,12.64-15.64,10.87-13.45A16.27,16.27,0,0,0,1183.58,500Z"/></g><g class="cls-13"><path class="cls-9" d="M1241.19,45.08a13.89,13.89,0,0,0-1.2-2.74,14.86,14.86,0,0,0-1.77-2.4,16.94,16.94,0,0,0-4.74-3.72l-73.15-35a13.39,13.39,0,0,0-5.64-1.2h-.32a25.08,25.08,0,0,0-6,.48l-73.13,35.24a12.94,12.94,0,0,0-7.19,8.87l-1.5,6.57,88,47.87.14-.07,88.37-45.86Z"/><path class="cls-10" d="M1154.55,99.05l-88-47.87-10.48,46-6,26.3a15.46,15.46,0,0,0-.24,3v.12a15.27,15.27,0,0,0,.32,2.6c0,.22.11.45.17.67a13.79,13.79,0,0,0,.62,1.88,15.9,15.9,0,0,0,1.74,3.19l9.64,11.91,20.73,25.61,20.24,25.06a17.59,17.59,0,0,0,10.23,4.94c.27,0,.53.07.8.09h40.35V99.13Z"/><path class="cls-11" d="M1258.31,123.37l-16.27-70L1154.14,99V202.07h40a16.71,16.71,0,0,0,3.92-.44l.74-.2a11.82,11.82,0,0,0,6.3-4.37L1231.83,164l12.67-15.68,10.91-13.48A16.32,16.32,0,0,0,1258.31,123.37Z"/></g><g class="cls-13"><polygon class="cls-10" points="471.16 310.6 700.12 168.72 775.03 406.13 479.7 398.06 471.16 310.6"/></g><path class="cls-9" d="M973.92,159.15a21.61,21.61,0,0,0-1.87-4.3,23.86,23.86,0,0,0-2.79-3.77,26.61,26.61,0,0,0-7.42-5.83L847.14,90.37a21,21,0,0,0-8.85-1.88h-.49a40.06,40.06,0,0,0-9.4.75L713.74,144.51a20.15,20.15,0,0,0-11.27,13.9l-2.35,10.3,138,75.06.22-.11,138.56-71.9Z"/><path class="cls-10" d="M838.07,243.77l-138-75.06-16.44,72.14-9.4,41.23a24,24,0,0,0-.37,4.78V287a23.23,23.23,0,0,0,.51,4.08c.07.36.16.71.25,1.05a21.74,21.74,0,0,0,1,2.95,24.54,24.54,0,0,0,2.72,5l15.12,18.67L726,359l31.73,39.29a27.5,27.5,0,0,0,16,7.75c.42,0,.84.11,1.26.14l62.4-.84.86-161.4Z"/><path class="cls-11" d="M1000.77,281.9,975.26,172.15,837.43,243.67V405.29h62.7a26,26,0,0,0,6.15-.69c.39-.09.78-.2,1.17-.31a18.49,18.49,0,0,0,9.87-6.85l41.93-51.87L979.12,321l17.1-21.15A25.62,25.62,0,0,0,1000.77,281.9Z"/><path class="cls-2" d="M736.93,310.22l86.9,48.16a2.8,2.8,0,0,0,4.16-2.46V253.71a9.84,9.84,0,0,0-5.2-8.67l-1-.55-85.4-45.66a1.66,1.66,0,0,0-2.44,1.45l-.59,103.53A8.32,8.32,0,0,0,736.93,310.22Z"/><path class="cls-2" d="M840.38,141.41a18,18,0,0,0-7.47,1.58l-85.6,38.57a1.68,1.68,0,0,0-.1,3l86.57,46.28.3.15.37.18.17.08.51.21.06,0a11.81,11.81,0,0,0,9.72-.62l88.75-47.15a2.08,2.08,0,0,0-.15-3.74l-86.15-37.1A18,18,0,0,0,840.38,141.41Z"/><path class="cls-2" d="M941.17,198.29a2.83,2.83,0,0,0-2.55.37l-15.55,8.6a10.85,10.85,0,0,0-5,5.76L894.3,268.57l-23.68-29.31q-1.51-2.19-5-.29l-15.55,8.6a7,7,0,0,0-2.55,2.44,5.7,5.7,0,0,0-1,3.11V359a1.8,1.8,0,0,0,1,1.91,3,3,0,0,0,2.54-.45l17.35-9.58a7.27,7.27,0,0,0,2.54-2.37,5.43,5.43,0,0,0,1-3.05V278.81l14.73,19.12a3.69,3.69,0,0,0,4.81.5l7.44-4.1a11.57,11.57,0,0,0,4.81-5.83L917.7,253l.16,61.61.11,5.27a1.81,1.81,0,0,0,1.07,1.82,2.67,2.67,0,0,0,2.4-.35l17.28-10a7.37,7.37,0,0,0,2.49-2.42,5.43,5.43,0,0,0,1-3.07l0-105.61A1.91,1.91,0,0,0,941.17,198.29Z"/><rect class="cls-10" x="463.96" y="307.53" width="147.47" height="90.47" rx="16.91"/></g></g></svg>
