<?xml version="1.0" standalone="no"?>
<!DOCTYPE svg PUBLIC "-//W3C//DTD SVG 20010904//EN"
 "http://www.w3.org/TR/2001/REC-SVG-20010904/DTD/svg10.dtd">
<svg version="1.0" xmlns="http://www.w3.org/2000/svg"
 width="500.000000pt" height="500.000000pt" viewBox="0 0 500.000000 500.000000"
 preserveAspectRatio="xMidYMid meet">

<g transform="translate(0.000000,500.000000) scale(0.100000,-0.100000)"
fill="white" stroke="none">
<path d="M1615 4585 c-101 -21 -189 -69 -266 -145 -185 -184 -212 -457 -68
-682 34 -53 34 -51 4 -178 -9 -36 -19 -129 -22 -206 -6 -160 10 -292 53 -417
21 -59 104 -343 104 -353 0 -1 -7 -10 -16 -18 -13 -13 -42 -16 -157 -16 l-141
0 -113 113 c-108 108 -113 115 -103 141 15 40 12 121 -5 164 -73 174 -319 185
-404 18 -89 -173 60 -359 254 -318 l50 10 58 -56 c31 -31 57 -62 57 -69 0 -6
-20 -26 -44 -42 -139 -96 -181 -248 -109 -391 34 -65 105 -123 177 -145 37
-11 104 -15 267 -15 120 0 224 -3 233 -6 23 -9 20 -61 -10 -184 -31 -127 -44
-366 -25 -477 26 -151 98 -325 186 -449 l45 -63 -11 -50 c-28 -132 60 -281
195 -328 47 -17 101 -18 656 -18 704 0 673 -4 772 95 71 72 94 136 84 241 l-7
69 46 64 c91 128 166 321 182 469 3 31 12 65 19 75 11 15 16 16 46 3 85 -34
106 -40 149 -41 168 -1 305 134 303 300 0 49 -7 80 -29 128 l-28 63 105 106
106 106 51 -13 c173 -41 317 112 267 283 -12 43 -26 64 -62 96 -56 49 -100 65
-170 59 -77 -7 -140 -48 -177 -118 -25 -47 -28 -63 -24 -115 2 -33 7 -68 12
-78 6 -14 -14 -40 -91 -117 -62 -64 -105 -100 -119 -100 -32 0 -415 388 -415
421 0 32 34 219 55 298 8 33 37 127 64 208 27 81 55 186 61 231 18 123 8 375
-19 476 -12 44 -21 85 -21 91 0 7 16 39 35 71 106 176 105 403 -3 570 -46 71
-137 156 -201 189 -172 86 -373 78 -539 -22 l-64 -39 -91 25 c-84 23 -110 25
-292 25 -183 -1 -208 -3 -295 -26 l-95 -26 -54 36 c-114 74 -272 105 -406 77z
m248 -145 c47 -23 34 -44 -70 -113 -124 -82 -246 -205 -332 -332 -37 -55 -75
-101 -84 -103 -23 -5 -46 52 -54 132 -17 180 95 353 270 417 41 15 72 18 147
15 52 -1 107 -9 123 -16z m1504 -14 c77 -35 163 -122 200 -203 49 -106 40
-318 -14 -318 -15 0 -38 25 -83 94 -82 122 -215 254 -335 333 -73 48 -95 67
-93 82 5 31 61 46 168 43 79 -3 105 -8 157 -31z m-723 -42 c413 -66 753 -377
862 -789 24 -87 27 -121 28 -260 1 -179 -11 -249 -71 -415 -83 -232 -127 -481
-126 -730 0 -175 9 -257 50 -465 44 -227 31 -406 -43 -593 -34 -83 -91 -182
-110 -189 -9 -3 -41 7 -72 23 -50 26 -69 29 -162 32 -58 1 -115 5 -127 7 -30
7 -29 33 3 76 39 51 81 147 93 214 16 88 14 465 -4 548 -19 92 -68 179 -142
256 -35 35 -63 69 -63 77 0 7 26 31 58 53 169 115 282 324 282 526 0 94 -25
192 -75 290 -25 50 -45 96 -45 103 0 15 29 21 120 24 l75 3 0 275 c0 303 1
299 -66 375 -37 41 -33 59 16 79 41 18 45 38 14 97 -17 34 -24 40 -42 35 -55
-14 -522 -215 -530 -228 -6 -9 2 -31 24 -67 l34 -54 0 -151 0 -151 -165 0
-165 0 -3 145 -3 145 37 60 c23 39 33 65 27 74 -11 18 -532 233 -549 227 -15
-6 -44 -69 -44 -98 0 -12 12 -24 34 -33 47 -20 51 -39 16 -79 -17 -19 -40 -56
-52 -82 -20 -45 -22 -68 -25 -279 -1 -126 1 -243 5 -260 l8 -30 91 -3 c61 -2
95 -7 102 -16 9 -10 0 -34 -34 -97 -57 -108 -78 -190 -77 -304 0 -206 94 -391
262 -516 38 -28 70 -56 70 -62 0 -5 -29 -38 -65 -73 -76 -76 -128 -173 -151
-284 -13 -60 -15 -121 -12 -300 5 -254 15 -301 86 -409 20 -31 40 -61 44 -66
4 -6 3 -17 -2 -25 -7 -11 -39 -16 -127 -20 -105 -5 -124 -9 -169 -34 -29 -15
-60 -26 -70 -24 -26 5 -129 212 -156 313 -31 117 -31 343 1 475 36 152 51 284
51 450 0 257 -33 464 -116 720 -70 218 -78 258 -78 420 -1 170 17 265 73 405
102 254 296 459 545 576 193 90 407 118 630 83z m-536 -648 l37 -36 3 -192 c3
-149 0 -193 -10 -199 -21 -14 -242 -11 -256 3 -8 8 -12 64 -12 185 0 185 4
207 52 249 32 30 46 34 101 30 41 -3 55 -10 85 -40z m873 21 c61 -41 69 -70
69 -263 0 -119 -4 -174 -12 -182 -8 -8 -53 -12 -135 -12 l-123 0 -11 28 c-7
16 -9 89 -7 187 3 126 7 167 20 191 38 71 133 95 199 51z m-799 -722 c61 -56
128 -98 191 -119 15 -5 17 -22 17 -164 l0 -158 -55 -54 c-30 -30 -55 -61 -55
-69 0 -19 60 -81 78 -81 8 0 35 18 59 40 l44 41 27 -19 c15 -11 36 -29 46 -41
11 -12 27 -21 37 -21 18 0 79 63 79 81 0 6 -27 39 -60 73 l-60 63 0 149 0 150
66 28 c45 20 90 51 140 98 41 37 78 68 83 68 13 0 64 -67 89 -115 95 -189 63
-420 -80 -571 -156 -166 -383 -207 -587 -108 -256 125 -355 432 -220 684 28
52 73 110 85 110 3 0 37 -29 76 -65z m-1438 -76 c42 -50 32 -105 -25 -135 -60
-31 -129 11 -129 78 0 85 100 122 154 57z m445 -663 c101 -101 142 -149 139
-162 -3 -18 -16 -19 -163 -22 -88 -2 -175 0 -193 3 -47 9 -109 68 -123 117
-27 102 52 208 156 208 38 0 47 -6 184 -144z m255 122 c3 -13 8 -49 11 -80 6
-51 4 -58 -15 -68 -18 -10 -29 -4 -90 56 -64 62 -81 90 -63 107 3 4 39 7 79 7
68 0 74 -2 78 -22z m2925 -64 c65 -54 28 -154 -58 -154 -32 0 -44 6 -65 31
-29 34 -32 62 -12 98 30 53 89 64 135 25z m-716 -333 c75 -77 137 -144 137
-151 0 -19 -202 -220 -220 -220 -10 0 -22 6 -27 13 -14 17 -51 211 -64 338
-13 117 -8 159 19 159 9 0 79 -63 155 -139z m-1038 61 c86 -41 148 -100 188
-181 l32 -66 0 -275 0 -275 -29 -60 c-116 -236 -416 -294 -606 -118 -40 37
-70 77 -92 121 l-33 67 0 265 0 265 27 57 c37 79 70 120 132 163 119 82 256
95 381 37z m1293 -344 c17 -17 15 -94 -5 -135 -24 -51 -81 -85 -143 -86 -35
-1 -56 4 -67 16 -16 16 -12 23 82 117 55 55 104 100 110 100 6 0 16 -5 23 -12z
m-1608 -890 c61 -32 83 -66 88 -135 3 -49 0 -64 -20 -93 -13 -19 -39 -45 -57
-57 -33 -22 -42 -23 -246 -23 -204 0 -213 1 -246 23 -58 39 -81 83 -77 148 5
68 32 109 90 138 39 19 60 21 233 21 178 0 194 -1 235 -22z m783 8 c99 -42
132 -165 68 -254 -40 -56 -67 -62 -296 -62 -228 0 -244 3 -289 63 -51 66 -46
144 11 208 19 21 49 43 67 48 53 15 401 13 439 -3z"/>
<path d="M1978 3585 c-62 -34 -38 -127 35 -133 72 -6 107 83 51 127 -31 24
-49 26 -86 6z"/>
<path d="M2868 3585 c-62 -34 -38 -127 35 -133 71 -6 104 72 52 123 -27 28
-48 31 -87 10z"/>
</g>
</svg>
