<?xml version="1.0" encoding="utf-8"?>
<!-- Generator: Adobe Illustrator 23.0.4, SVG Export Plug-In . SVG Version: 6.00 Build 0)  -->
<svg version="1.1" id="Layer_1" xmlns="http://www.w3.org/2000/svg" xmlns:xlink="http://www.w3.org/1999/xlink" x="0px" y="0px"
	 width="100px" height="17.5px" viewBox="0 0 100 17.5" style="enable-background:new 0 0 100 17.5;" xml:space="preserve">
<style type="text/css">
	.st0{clip-path:url(#SVGID_2_);}
	.st1{fill:#008585;}
	.st2{fill:#008585;}
	.st3{fill:#008585;}
	.st4{clip-path:url(#SVGID_4_);}
	.st5{clip-path:url(#SVGID_6_);fill:#008585;}
</style>
<title>sprite</title>
<g>
	<g>
		<defs>
			<rect id="SVGID_1_" y="0.5" width="38" height="17"/>
		</defs>
		<clipPath id="SVGID_2_">
			<use xlink:href="#SVGID_1_"  style="overflow:visible;"/>
		</clipPath>
		<g class="st0">
			<path class="st1" d="M6.7,1.9C6.8,1.7,7,1.7,7.2,1.7s0.4,0.1,0.5,0.2L13.8,8C13.9,8.1,14,8.3,14,8.5S13.9,8.9,13.8,9l-6.1,6.1
				c-0.1,0.1-0.3,0.2-0.5,0.2s-0.4-0.1-0.5-0.2L6,14.4c-0.2-0.1-0.3-0.3-0.2-0.5c0-0.2,0.1-0.4,0.2-0.5l3.7-3.6h-9
				c-0.2,0-0.4-0.1-0.5-0.2C0.1,9.4,0,9.2,0,9V8c0-0.2,0.1-0.4,0.2-0.5s0.3-0.2,0.5-0.2h9L6,3.6C5.9,3.5,5.8,3.3,5.8,3.1
				S5.9,2.7,6,2.6L6.7,1.9z"/>
		</g>
	</g>
</g>
<path class="st2" d="M29,0c1.5,0,3,0.4,4.4,1.2c1.3,0.8,2.4,1.9,3.2,3.2s1.2,2.8,1.2,4.4c0,1.5-0.4,3-1.2,4.4
	c-0.8,1.3-1.9,2.4-3.2,3.2c-2.7,1.6-6,1.6-8.7,0c-1.3-0.8-2.4-1.9-3.2-3.2c-0.8-1.3-1.2-2.8-1.2-4.4c0-1.5,0.4-3,1.2-4.4
	c0.8-1.3,1.9-2.4,3.2-3.2C26,0.4,27.5,0,29,0z M29,15.8c1.2,0,2.5-0.3,3.5-0.9c1.1-0.6,1.9-1.5,2.6-2.6c1.3-2.2,1.3-4.8,0-7
	c-0.6-1.1-1.5-1.9-2.6-2.6c-2.2-1.3-4.8-1.3-7,0c-1.1,0.6-2,1.5-2.6,2.5c-1.3,2.2-1.3,4.8,0,7c0.6,1.1,1.5,1.9,2.6,2.6
	C26.5,15.4,27.8,15.7,29,15.8z M31.2,12.1c0.1,0.1,0.2,0.1,0.3,0.1c0.1,0,0.2-0.1,0.3-0.2l0.6-0.9c0.1-0.1,0.1-0.2,0.1-0.3
	s-0.1-0.2-0.2-0.3L30,8.8v-5c0-0.2-0.2-0.4-0.4-0.4l0,0h-1.1c-0.2,0-0.4,0.2-0.4,0.4c0,0,0,0,0,0.1v5.8c0,0.1,0.1,0.3,0.2,0.4
	L31.2,12.1z"/>
<path class="st3" d="M50.6,0c1.5,0,3,0.4,4.4,1.2c1.3,0.8,2.4,1.9,3.2,3.2s1.2,2.8,1.2,4.4c0,1.5-0.4,3-1.2,4.4
	c-0.8,1.3-1.9,2.4-3.2,3.2c-2.7,1.6-6,1.6-8.7,0c-1.3-0.8-2.4-1.9-3.2-3.2s-1.2-2.8-1.2-4.4c0-1.5,0.4-3,1.2-4.4
	C43.9,3,45,1.9,46.3,1.2C47.6,0.4,49.1,0,50.6,0z M50.6,15.8c1.2,0,2.5-0.3,3.5-0.9c1.1-0.6,1.9-1.5,2.6-2.6c1.3-2.2,1.3-4.8,0-7
	c-0.6-1.1-1.5-1.9-2.6-2.6c-2.2-1.3-4.8-1.3-7,0c-1.1,0.6-2,1.5-2.6,2.5c-1.3,2.2-1.3,4.8,0,7c0.6,1.1,1.5,1.9,2.6,2.6
	C48.2,15.4,49.4,15.7,50.6,15.8z M52.8,12.1c0.1,0.1,0.2,0.1,0.3,0.1s0.2-0.1,0.3-0.2l0.6-0.9c0.1-0.1,0.1-0.2,0.1-0.3
	s-0.1-0.2-0.2-0.3l-2.3-1.7v-5c0-0.2-0.2-0.4-0.4-0.4l0,0h-1.1c-0.2,0-0.4,0.2-0.4,0.4c0,0,0,0,0,0.1v5.8c0,0.1,0.1,0.3,0.2,0.4
	L52.8,12.1z"/>
<g>
	<g>
		<defs>
			<path id="SVGID_3_" d="M76.5,9.7c0.8,0,1.6,0.2,2.3,0.6c0.7,0.4,1.3,1,1.7,1.7c0.4,0.7,0.6,1.5,0.6,2.3v1.4
				c0,0.5-0.2,0.8-0.5,1.2c-0.3,0.3-0.7,0.5-1.2,0.5h-12c-0.5,0-0.8-0.2-1.2-0.5s-0.5-0.7-0.5-1.2v-1.4c0-0.8,0.2-1.6,0.6-2.3
				s1-1.3,1.7-1.7s1.5-0.6,2.3-0.6h0.6c0.8,0.4,1.6,0.5,2.5,0.5s1.7-0.2,2.5-0.5H76.5z M73.4,8.6c-0.8,0-1.5-0.2-2.2-0.6
				c-0.7-0.4-1.2-0.9-1.6-1.6S69,5,69,4.2s0.2-1.5,0.6-2.2s0.9-1.2,1.6-1.6s1.4-0.6,2.2-0.6c0.8,0,1.5,0.2,2.2,0.6s1.2,0.9,1.6,1.6
				s0.6,1.4,0.6,2.2s-0.2,1.5-0.6,2.2S76.3,7.6,75.6,8C74.9,8.5,74.2,8.6,73.4,8.6z"/>
		</defs>
		<clipPath id="SVGID_4_">
			<use xlink:href="#SVGID_3_"  style="overflow:visible;"/>
		</clipPath>
		<g class="st4">
			<g>
				<defs>
					<rect id="SVGID_5_" x="-32" y="-563.1" width="1450.5" height="2410.8"/>
				</defs>
				<clipPath id="SVGID_6_">
					<use xlink:href="#SVGID_5_"  style="overflow:visible;"/>
				</clipPath>
				<rect x="61" y="-4.9" class="st5" width="24.9" height="27.1"/>
			</g>
		</g>
	</g>
</g>
<g id="nSrG4B.tif">
</g>
<path class="st1" d="M86.4,9.1V3.7c0-0.7,0.6-1.3,1.3-1.3H93c0.3,0,0.7,0.1,0.9,0.4l5.6,5.6c0.5,0.5,0.5,1.3,0,1.8l-5.4,5.4
	c-0.5,0.5-1.3,0.5-1.8,0L86.7,10C86.5,9.8,86.4,9.5,86.4,9.1z M89.3,4.2c-0.7,0-1.3,0.6-1.3,1.3s0.6,1.3,1.3,1.3
	c0.7,0,1.3-0.6,1.3-1.3S90,4.2,89.3,4.2z"/>
</svg>
